<svg xmlns="http://www.w3.org/2000/svg" width="95" height="62" viewBox="0 0 95 62"><g><g><path fill="#fff" d="M95 45.803a1.39 1.39 0 0 1-1.392 1.387c-3.584 0-5.334.672-7.186 1.386-2.009.773-4.086 1.574-8.19 1.574-4.104 0-6.182-.8-8.19-1.574-1.853-.714-3.603-1.386-7.187-1.386-3.581 0-5.33.672-7.18 1.386-2.008.772-4.084 1.574-8.186 1.574s-6.18-.8-8.187-1.574c-1.852-.714-3.6-1.386-7.183-1.386-3.582 0-5.33.672-7.18 1.386-2.008.772-4.084 1.574-8.186 1.574-4.1 0-6.176-.8-8.183-1.574-1.85-.714-3.598-1.386-7.178-1.386C.623 47.19 0 46.569 0 45.803s.623-1.384 1.392-1.384c4.1 0 6.176.8 8.183 1.573 1.85.714 3.598 1.388 7.178 1.388 3.582 0 5.33-.674 7.18-1.388 2.008-.774 4.084-1.573 8.186-1.573s6.179.8 8.187 1.573c1.852.714 3.6 1.388 7.183 1.388 3.582 0 5.33-.674 7.18-1.388 2.009-.774 4.085-1.573 8.186-1.573 4.104 0 6.182.8 8.19 1.573 1.853.714 3.603 1.388 7.187 1.388s5.334-.674 7.186-1.388c2.01-.774 4.086-1.573 8.19-1.573.769 0 1.392.618 1.392 1.384zm-8.328 8.6l-.25.095c-.875.338-1.779.685-2.876.97a1.39 1.39 0 0 1-1.697-.993 1.385 1.385 0 0 1 .998-1.689c.941-.243 1.733-.55 2.57-.871l.254-.097a1.394 1.394 0 0 1 1.8.794 1.383 1.383 0 0 1-.799 1.79zm-8.034.319a1.393 1.393 0 0 1-1.44 1.333c-3.437-.124-5.328-.85-7.156-1.557-1.853-.713-3.602-1.387-7.187-1.387-3.581 0-5.33.674-7.18 1.387-2.008.775-4.084 1.574-8.186 1.574s-6.179-.799-8.187-1.574c-1.852-.713-3.6-1.387-7.183-1.387-3.582 0-5.33.674-7.18 1.387-1.825.703-3.711 1.43-7.135 1.556a1.39 1.39 0 0 1-1.442-1.332 1.388 1.388 0 0 1 1.34-1.436c2.956-.11 4.547-.721 6.231-1.371 2.008-.774 4.084-1.574 8.186-1.574s6.179.8 8.187 1.574c1.852.714 3.6 1.387 7.183 1.387 3.582 0 5.33-.673 7.18-1.387 2.009-.774 4.085-1.574 8.186-1.574 4.104 0 6.182.8 8.19 1.574 1.689.65 3.283 1.264 6.253 1.372.767.025 1.368.67 1.34 1.435zM64.247 57.65c0 .765-.623 1.385-1.392 1.385-3.581 0-5.33.674-7.18 1.388-2.008.772-4.084 1.573-8.186 1.573s-6.179-.801-8.187-1.573c-1.852-.714-3.6-1.388-7.183-1.388-.769 0-1.392-.62-1.392-1.385 0-.766.623-1.387 1.392-1.387 4.102 0 6.179.802 8.187 1.575 1.852.714 3.6 1.385 7.183 1.385 3.582 0 5.33-.671 7.18-1.385 2.009-.773 4.085-1.575 8.186-1.575.769 0 1.392.62 1.392 1.387zm-51.094-3.173a1.392 1.392 0 0 1-1.696.996c-1.104-.286-2.011-.637-2.889-.975a1.383 1.383 0 0 1-.795-1.792 1.393 1.393 0 0 1 1.8-.791c.841.324 1.635.63 2.582.876.744.189 1.191.946.998 1.686zM65.39 27.695a1.398 1.398 0 0 1-1.938-.343A19.482 19.482 0 0 0 47.5 19.056c-10.715 0-19.431 8.677-19.431 19.345 0 .46.016.924.048 1.383a1.387 1.387 0 0 1-1.29 1.478 1.39 1.39 0 0 1-1.486-1.283 22.27 22.27 0 0 1-.056-1.578c0-12.196 9.966-22.116 22.215-22.116a22.272 22.272 0 0 1 18.236 9.48c.44.63.285 1.493-.346 1.93zM20.632 38.401c0 .765-.623 1.383-1.392 1.383h-8.924a1.387 1.387 0 0 1-1.392-1.383c0-.767.623-1.387 1.392-1.387h8.924c.769 0 1.392.62 1.392 1.387zm28.26-37.02v8.883a1.39 1.39 0 0 1-1.392 1.388 1.39 1.39 0 0 1-1.392-1.388V1.382c0-.766.623-1.386 1.392-1.386.768 0 1.392.62 1.392 1.386zm25.885 11.822l-6.31 6.282a1.39 1.39 0 0 1-1.968 0 1.38 1.38 0 0 1 0-1.958l6.31-6.282a1.396 1.396 0 0 1 1.968 0 1.38 1.38 0 0 1 0 1.958zm-37.56.485a1.392 1.392 0 0 1-1.818-.75l-1.138-2.735a1.384 1.384 0 0 1 .753-1.812 1.394 1.394 0 0 1 1.819.751l1.138 2.736a1.384 1.384 0 0 1-.753 1.81zM76.89 27.78l-2.749 1.131a1.391 1.391 0 0 1-1.818-.749 1.381 1.381 0 0 1 .753-1.808l2.749-1.133a1.394 1.394 0 0 1 1.818.749 1.384 1.384 0 0 1-.753 1.81zM60.739 10.203L59.6 12.938a1.392 1.392 0 0 1-1.818.75 1.384 1.384 0 0 1-.753-1.81l1.138-2.736a1.394 1.394 0 0 1 1.818-.75 1.384 1.384 0 0 1 .754 1.81zm-38.062 17.96a1.391 1.391 0 0 1-1.818.75L18.11 27.78a1.382 1.382 0 0 1-.753-1.81 1.394 1.394 0 0 1 1.818-.75l2.749 1.135a1.381 1.381 0 0 1 .753 1.809zm8.366-9.965c0 .766-.623 1.386-1.392 1.386H7.341c-.769 0-1.392-.62-1.392-1.386 0-4.265 3.484-7.731 7.766-7.731.78 0 1.548.119 2.293.35a9.318 9.318 0 0 1 5.675-1.935c5.161 0 9.36 4.178 9.36 9.316zM8.93 16.813h19.182a6.58 6.58 0 0 0-6.428-5.161 6.56 6.56 0 0 0-4.455 1.761 1.4 1.4 0 0 1-1.508.253 4.933 4.933 0 0 0-2.006-.428 4.989 4.989 0 0 0-4.785 3.575zM78.64 39.88c0 .766-.623 1.387-1.392 1.387h-22.31c-.769 0-1.392-.62-1.392-1.387 0-5.138 4.199-9.317 9.36-9.317 2.055 0 4.04.68 5.676 1.936a7.653 7.653 0 0 1 2.292-.35c4.282 0 7.766 3.467 7.766 7.731zm-22.163-1.385h19.182a4.989 4.989 0 0 0-4.785-3.574c-.686 0-1.36.142-2.005.426-.508.223-1.101.124-1.508-.252a6.56 6.56 0 0 0-4.455-1.762 6.582 6.582 0 0 0-6.429 5.162z"/></g></g></svg>