<svg xmlns="http://www.w3.org/2000/svg" width="139" height="112" viewBox="0 0 139 112"><defs><clipPath id="x2rma"><path fill="#fff" d="M9.5 111.5c-4.5 0-9-4.5-9-9v-93c0-4.5 4.5-9 9-9h38c4.5 0 9 4.5 9 9v93c0 4.5-4.5 9-9 9z"/></clipPath></defs><g><g><g opacity=".58"><path fill="none" stroke="#fff" stroke-dasharray="8 5" stroke-miterlimit="50" stroke-width="4" d="M9.5 111.5c-4.5 0-9-4.5-9-9v-93c0-4.5 4.5-9 9-9h38c4.5 0 9 4.5 9 9v93c0 4.5-4.5 9-9 9z" clip-path="url(&quot;#x2rma&quot;)"/></g><g><path fill="#ff3d63" d="M39 111V56h89v55z"/></g><g><path fill="#fff" d="M43.999 106.098v-46.34c0-.27.222-.492.493-.492h81.093c.271 0 .493.222.493.493v46.339a.494.494 0 0 1-.493.493H44.492a.494.494 0 0 1-.493-.493zM31.92 83.052a4.292 4.292 0 0 1 4.289-4.29 4.292 4.292 0 0 1 4.289 4.29 4.292 4.292 0 0 1-4.29 4.288 4.292 4.292 0 0 1-4.288-4.288zm101.059-3.82v7.394a.989.989 0 0 1-.986.986.989.989 0 0 1-.986-.986V79.23c0-.542.444-.986.986-.986s.986.444.986.986zm5.669 23.341V63.481c0-4.51-3.599-8.159-8.11-8.159H36.63c-4.535 0-8.405 3.648-8.405 8.159v39.068c0 4.51 3.87 7.961 8.405 7.961h93.91c4.511.025 8.11-3.426 8.11-7.937z"/></g><g><path fill="none" stroke="#fff" stroke-dasharray="5 5" stroke-miterlimit="50" stroke-width="2" d="M62.237 18.382v0s15.603.327 25.072 6.958c9.47 6.63 12.804 19.563 12.804 19.563v0"/></g><g><path fill="#fff" d="M100.77 50.194l-4.848-4.975 6.792-1.694z"/></g></g></g></svg>