<svg xmlns="http://www.w3.org/2000/svg" width="75" height="75" viewBox="0 0 75 75"><g><g><path d="M69.542 36.311c3.144.882 5.458 3.772 5.458 7.193 0 3.422-2.312 6.313-5.455 7.196C72.853 53.157 75 57.093 75 61.522 75 68.954 68.954 75 61.523 75H7.471C3.35 75 0 71.648 0 67.528c0-3.42 2.312-6.313 5.455-7.194C2.147 57.875 0 53.939 0 49.51c0-4.43 2.148-8.366 5.458-10.824C2.313 37.804 0 34.916 0 31.493c0-3.42 2.312-6.312 5.455-7.194C2.147 21.84 0 17.904 0 13.476 0 6.044 6.046 0 13.477 0h54.052C71.65 0 75 3.35 75 7.47c0 3.422-2.312 6.314-5.455 7.195C72.853 17.123 75 21.06 75 25.488s-2.149 8.366-5.458 10.823zm-2.013 2.653H13.477c-5.816 0-10.547 4.73-10.547 10.546 0 5.817 4.731 10.547 10.547 10.547h42.48c.807 0 1.465.658 1.465 1.465 0 .808-.658 1.465-1.465 1.465H7.471a4.546 4.546 0 0 0-4.541 4.541 4.545 4.545 0 0 0 4.54 4.54h54.053c5.816 0 10.547-4.73 10.547-10.546 0-5.815-4.731-10.546-10.547-10.546H13.477a1.465 1.465 0 0 1 0-2.93h54.052a4.547 4.547 0 0 0 4.541-4.542 4.546 4.546 0 0 0-4.54-4.54zm4.541-13.476c0-5.817-4.731-10.548-10.547-10.548H13.477a1.464 1.464 0 1 1 0-2.93h54.052a4.546 4.546 0 0 0 4.541-4.54 4.546 4.546 0 0 0-4.54-4.542H13.476C7.66 2.928 2.93 7.66 2.93 13.476c0 5.815 4.731 10.546 10.547 10.546h48.34a1.466 1.466 0 0 1 0 2.93H7.47a4.546 4.546 0 0 0-4.541 4.54 4.546 4.546 0 0 0 4.54 4.543h54.053c5.816 0 10.547-4.733 10.547-10.547zm-8.789 36.034c0 .808-.658 1.465-1.465 1.465a1.467 1.467 0 0 1-1.464-1.465c0-.807.657-1.465 1.464-1.465.807 0 1.465.658 1.465 1.465z"/></g></g></svg>