<svg xmlns="http://www.w3.org/2000/svg" width="76" height="75" viewBox="0 0 76 75"><g><g><path d="M7.198 49.805a2.421 2.421 0 0 1-2.277 3.253c-.99 0-1.919-.61-2.278-1.592a35.543 35.543 0 0 1-1.6-18.348C3.289 20.381 12.326 9.966 24.269 5.738l-.604-.349a2.42 2.42 0 0 1-.886-3.307 2.426 2.426 0 0 1 3.311-.888l5.787 3.341a2.42 2.42 0 0 1 .887 3.31l-3.342 5.781a2.424 2.424 0 0 1-4.198-2.424l.48-.831C15.476 14.06 7.748 23.019 5.817 33.959a30.697 30.697 0 0 0 1.382 15.846zM63.38 62.168c-6.824 8.115-16.906 12.7-27.32 12.7-2.04 0-4.094-.175-6.138-.536a35.696 35.696 0 0 1-16.815-7.88v.844a2.423 2.423 0 0 1-2.424 2.42h-.001a2.422 2.422 0 0 1-2.423-2.422l.002-6.677.002-.036c.001-.07.004-.137.01-.209v-.001l.002-.007a2.42 2.42 0 0 1 2.638-2.169h6.453a2.423 2.423 0 1 1 0 4.846h-.78a30.8 30.8 0 0 0 14.177 6.52c10.78 1.903 21.855-2.125 28.906-10.508a2.42 2.42 0 0 1 3.415-.295 2.418 2.418 0 0 1 .296 3.41zm10.907-12.445L68.5 53.06a2.425 2.425 0 0 1-3.311-.886l-3.34-5.782a2.424 2.424 0 1 1 4.2-2.424l.354.615c1.41-8.07-.402-16.206-5.104-22.918-4.712-6.724-11.763-11.213-19.853-12.636a2.424 2.424 0 0 1 .842-4.774c9.365 1.65 17.527 6.846 22.982 14.63 5.455 7.785 7.55 17.227 5.898 26.589-.03.17-.069.341-.102.512l.798-.46a2.424 2.424 0 0 1 2.424 4.197z"/></g></g></svg>