<svg xmlns="http://www.w3.org/2000/svg" width="76" height="76" viewBox="0 0 76 76"><g><g><path d="M75.562 70.043v5.518h-5.517L56.797 62.314a3.726 3.726 0 0 1-5.137-.137l-3.706-3.706c-6.463 4.974-15.614 4.382-21.383-1.382l-16.01-16.012-.323.323a5.67 5.67 0 0 1-8.018-8.016l6.573-6.575-7.09-7.09a3.902 3.902 0 0 1 5.517-5.517l7.09 7.09 6.983-6.983-7.09-7.09a3.902 3.902 0 0 1 5.518-5.517l7.09 7.09 6.573-6.573a5.67 5.67 0 0 1 8.017 8.018l-.322.323 16.008 16.01c5.754 5.774 6.345 14.917 1.382 21.383l3.707 3.707a3.75 3.75 0 0 1 .136 5.136zM23.061 12.542l1.982-1.982-7.09-7.09a1.401 1.401 0 1 0-1.982 1.981zm-12.5 12.5l1.982-1.982-7.09-7.09a1.4 1.4 0 1 0-1.983 1.981zm28.75-16.25l.323-.323a3.17 3.17 0 0 0-4.483-4.482l-6.573 6.573-5.517 5.518-6.983 6.982-5.517 5.517-6.573 6.573a3.17 3.17 0 0 0 4.482 4.483l.323-.322zm16.01 38.993c5.362-5.374 5.362-14.074 0-19.448l-16.01-16.01-26.983 26.984 16.01 16.01c5.374 5.361 14.074 5.361 19.447 0zm5.09 7.41a1.25 1.25 0 0 0 0-1.768l-3.6-3.6-6.982 6.984 3.599 3.599c.488.487 1.28.487 1.767 0zm12.651 15.884l-12.5-12.5-1.983 1.982 12.5 12.5h1.983zM46.446 47.692a1.251 1.251 0 0 1-1.768.003l-6.617-6.618-4.117 4.118a1.25 1.25 0 0 1-2.045-.421l-5-12.5a1.25 1.25 0 0 1 .277-1.348l6.25-6.249c.296-.3.724-.428 1.135-.34.412.083.754.369.91.759l1.796 4.49 3.66-3.66a1.25 1.25 0 0 1 2.111.653l3.75 20c.077.405-.052.821-.342 1.113zM43.59 43.07L41.02 29.37l-3.324 3.324a1.249 1.249 0 0 1-2.045-.42l-1.796-4.49-4.327 4.327 3.99 9.975 3.66-3.66a1.25 1.25 0 0 1 1.767 0z"/></g></g></svg>