<svg xmlns="http://www.w3.org/2000/svg" width="75" height="75" viewBox="0 0 75 75"><g><g><path d="M75 23.134v2.796a3.937 3.937 0 0 1-1.422 3.03v25.456c0 1.28-.615 2.421-1.564 3.142v5.39a2.52 2.52 0 0 1-1.422 2.263v7.976c0 .996-.812 1.81-1.81 1.81h-4.265c-.998 0-1.81-.814-1.81-1.81v-2.743H12.293v2.743c0 .996-.812 1.81-1.81 1.81H6.218c-.998 0-1.81-.814-1.81-1.81V63.79a2.523 2.523 0 0 1-1.422-2.267v-3.966a3.942 3.942 0 0 1-1.564-3.142V28.959A3.938 3.938 0 0 1 0 25.93v-2.795a3.947 3.947 0 0 1 3.942-3.943h.324V6.781a6.794 6.794 0 0 1 6.786-6.786h52.896a6.794 6.794 0 0 1 6.786 6.786v12.41h.323A3.948 3.948 0 0 1 75 23.134zM6.463 19.191h5.054V6.85c0-.656.333-1.253.89-1.597a1.865 1.865 0 0 1 1.826-.082l4.11 2.055a3.578 3.578 0 0 0 1.595.376h10.24c.55 0 1.102-.13 1.595-.376l4.11-2.055a1.862 1.862 0 0 1 1.617-.03 1.862 1.862 0 0 1 1.616.03l4.11 2.055a3.578 3.578 0 0 0 1.596.376h10.24c.55 0 1.102-.13 1.594-.376l4.11-2.055a1.865 1.865 0 0 1 1.826.082c.557.344.89.941.89 1.597V19.19h5.055V6.781c0-2.53-2.06-4.589-4.59-4.589H11.053c-2.53 0-4.59 2.06-4.59 4.59zM68.394 65.47H44.098a39.68 39.68 0 0 1-6.508-.539l-2.248-.375a37.45 37.45 0 0 0-6.147-.51H6.605v8.752h3.49v-3.45c0-.608.493-1.1 1.1-1.1h52.61c.607 0 1.099.492 1.099 1.1v3.45h3.49zm1.422-2.521v-4.595c-.06.005-.12.007-.18.007H19.44a1.1 1.1 0 0 1 0-2.199h25.737c4.85 0 9.444-2.622 13.286-7.586 3.67-4.743 6.345-11.356 7.58-18.703h-1.657c-2.64 4.808-8.184 9.108-15.712 12.166-7.96 3.236-17.528 4.946-27.67 4.946a1.098 1.098 0 1 1 0-2.198c9.861 0 19.143-1.654 26.843-4.782 6.488-2.637 11.369-6.19 13.974-10.132H3.942c-.109 0-.216-.004-.323-.013v24.557c0 .963.783 1.745 1.745 1.745H15.46a1.1 1.1 0 0 1 0 2.199H5.364c-.06 0-.12-.002-.18-.007v3.171c0 .18.144.326.323.326h23.688c2.174 0 4.364.18 6.508.538l2.248.375c2.025.337 4.093.508 6.147.508h25.395a.324.324 0 0 0 .323-.323zm1.564-33.089c-.106.01-.214.013-.323.013h-2.786c-2.01 12.494-7.744 22.154-15.053 26.29h16.417c.962 0 1.745-.783 1.745-1.746zm1.422-6.725c0-.962-.783-1.745-1.745-1.745H57.87a1.1 1.1 0 0 1 0-2.198h3.416V7.37L57.639 9.19a5.78 5.78 0 0 1-2.578.61H44.822a5.78 5.78 0 0 1-2.578-.61L38.598 7.37v9.697a1.098 1.098 0 0 1-2.197 0V7.37L32.755 9.19a5.78 5.78 0 0 1-2.577.61h-10.24a5.78 5.78 0 0 1-2.577-.61L13.715 7.37V19.19H53.71a1.099 1.099 0 1 1 0 2.198H3.942c-.962 0-1.745.783-1.745 1.745v2.796c0 .963.783 1.745 1.745 1.745h67.115c.962 0 1.745-.782 1.745-1.745z"/></g></g></svg>