<svg xmlns="http://www.w3.org/2000/svg" width="75" height="72" viewBox="0 0 75 72"><g><g><path d="M75 7v13.307c-.004 3.867-3.159 7-7.051 7.004H7.05C3.158 27.307.004 24.174 0 20.307V7C.004 3.132 3.158-.001 7.05-.004H67.95c3.892.003 7.047 3.136 7.05 7.005zm-2.5 13.307V7c-.003-2.498-2.039-4.52-4.551-4.524H7.05C4.54 2.481 2.503 4.503 2.5 7.001v13.306c.003 2.495 2.039 4.519 4.551 4.52H67.95c2.512-.001 4.548-2.025 4.55-4.52zM14.887 30.793v5.326a9.283 9.283 0 0 1-2.765 6.63 6.73 6.73 0 0 1-9.47 0 4.74 4.74 0 0 1-1.4-3.263c-.056-2.624 2.043-4.797 4.685-4.852h.107a4.765 4.765 0 0 1 3.375 1.394l.097.095c.472.479.476 1.244.01 1.727a1.255 1.255 0 0 1-1.767.038l-.103-.099a2.329 2.329 0 0 0-1.667-.669 2.279 2.279 0 0 0-1.563.66 2.26 2.26 0 0 0-.007 3.21 4.322 4.322 0 0 0 5.936 0 6.829 6.829 0 0 0 2.032-4.875v-5.322c0-.686.56-1.242 1.25-1.242s1.25.556 1.25 1.242zm8.863 1.485v4.149a18.018 18.018 0 0 1-5.366 12.87c-.01.008-.02.02-.031.03a1.256 1.256 0 0 1-1.767-.03 1.237 1.237 0 0 1 .03-1.757 15.557 15.557 0 0 0 4.634-11.113v-4.149c0-.686.56-1.242 1.25-1.242s1.25.556 1.25 1.242zm8.75 6.207V50.9c0 .687-.56 1.244-1.25 1.244S30 51.587 30 50.9V38.485c0-.684.56-1.242 1.25-1.242s1.25.558 1.25 1.242zm0-7.45v2.483c0 .687-.56 1.242-1.25 1.242S30 34.205 30 33.518v-2.482c0-.687.56-1.243 1.25-1.243s1.25.556 1.25 1.243zm39.846 11.711c-2.615 2.596-6.855 2.596-9.47 0a9.286 9.286 0 0 1-2.763-6.63v-5.323c0-.686.56-1.242 1.25-1.242s1.25.556 1.25 1.242v5.33a6.816 6.816 0 0 0 2.032 4.87 4.313 4.313 0 0 0 5.936 0c.418-.414.658-.972.67-1.56a2.276 2.276 0 0 0-2.24-2.313c-.621-.01-1.22.23-1.662.663l-.108.105-.03.03a1.256 1.256 0 0 1-1.766-.039 1.236 1.236 0 0 1 .039-1.756l.102-.101a4.831 4.831 0 0 1 3.476-1.387 4.803 4.803 0 0 1 3.273 1.387 4.733 4.733 0 0 1 .011 6.724zm-13.962 6.52c-.48.492-1.271.507-1.768.03a18.019 18.019 0 0 1-5.366-12.87v-4.148c0-.686.56-1.242 1.25-1.242s1.25.556 1.25 1.242v4.149a15.557 15.557 0 0 0 4.634 11.113 1.236 1.236 0 0 1 0 1.726zM45 38.485V50.9c0 .687-.56 1.244-1.25 1.244s-1.25-.557-1.25-1.244V38.485c0-.684.56-1.242 1.25-1.242s1.25.558 1.25 1.242zm0-7.45v2.483c0 .687-.56 1.242-1.25 1.242s-1.25-.555-1.25-1.242v-2.482c0-.687.56-1.243 1.25-1.243S45 30.35 45 31.036zm23.75-9.933c0 .687-.56 1.242-1.25 1.242h-60c-.69 0-1.25-.555-1.25-1.242 0-.686.56-1.24 1.25-1.24h60c.69 0 1.25.554 1.25 1.24zm0-4.967c0 .687-.56 1.243-1.25 1.243h-60c-.69 0-1.25-.556-1.25-1.243 0-.685.56-1.241 1.25-1.241h60c.69 0 1.25.556 1.25 1.241zM70 8.686c0 2.058-1.679 3.725-3.75 3.725h-5c-2.071 0-3.75-1.667-3.75-3.725 0-2.057 1.679-3.724 3.75-3.724h5C68.32 4.962 70 6.63 70 8.686zm-2.5 0c0-.686-.56-1.241-1.25-1.241h-5C60.56 7.445 60 8 60 8.686s.56 1.243 1.25 1.243h5c.69 0 1.25-.557 1.25-1.243zm-13.75 0c0 .686-.56 1.243-1.25 1.243H50c-.69 0-1.25-.557-1.25-1.243s.56-1.241 1.25-1.241h2.5c.69 0 1.25.555 1.25 1.241zm-7.5 0c0 .686-.56 1.243-1.25 1.243h-2.5c-.69 0-1.25-.557-1.25-1.243s.56-1.241 1.25-1.241H45c.69 0 1.25.555 1.25 1.241zm22.134 56.237a1.235 1.235 0 0 1 0 1.725c-.48.492-1.271.507-1.768.03l-2.134-2.118h-.962a3.742 3.742 0 0 1-2.27 2.254v.954l2.134 2.121a1.232 1.232 0 0 1 0 1.723c-.48.495-1.271.509-1.768.032L60 70.04l-1.616 1.605a1.254 1.254 0 0 1-1.737 0 1.235 1.235 0 0 1-.03-1.755l2.133-2.121v-.954a3.742 3.742 0 0 1-2.27-2.254h-.963l-2.133 2.119-.031.03a1.256 1.256 0 0 1-1.767-.03 1.236 1.236 0 0 1 .03-1.756l1.616-1.606-1.616-1.605a1.236 1.236 0 0 1 0-1.726 1.254 1.254 0 0 1 1.768-.03l2.133 2.12h.963a3.726 3.726 0 0 1 2.27-2.253v-.959l-2.134-2.117a1.24 1.24 0 0 1 0-1.728 1.256 1.256 0 0 1 1.768-.029L60 56.595l1.616-1.605a1.256 1.256 0 0 1 1.737 0c.497.476.51 1.263.03 1.757l-2.133 2.117v.959a3.726 3.726 0 0 1 2.27 2.253h.962l2.134-2.12a1.26 1.26 0 0 1 1.768 0 1.237 1.237 0 0 1 0 1.756l-1.617 1.605zm-7.134-1.606c0-.686-.56-1.241-1.25-1.241s-1.25.555-1.25 1.241.56 1.243 1.25 1.243 1.25-.557 1.25-1.243zm-30.366.847c-.48.494-1.271.507-1.768.031l-2.134-2.12h-.962a3.746 3.746 0 0 1-2.27 2.256v.956l2.134 2.119a1.235 1.235 0 0 1 0 1.724c-.48.495-1.271.508-1.768.03L22.5 67.554l-1.616 1.606a1.256 1.256 0 0 1-1.737 0 1.235 1.235 0 0 1-.03-1.754l2.133-2.119v-.956a3.747 3.747 0 0 1-2.27-2.255h-.963l-2.133 2.119c-.01.012-.02.02-.031.03a1.255 1.255 0 0 1-1.767-.03 1.234 1.234 0 0 1 .03-1.755l1.616-1.604-1.616-1.607a1.236 1.236 0 0 1 0-1.726 1.255 1.255 0 0 1 1.768-.03l2.133 2.12h.963a3.735 3.735 0 0 1 2.27-2.255v-.957l-2.134-2.119a1.235 1.235 0 0 1 0-1.725 1.255 1.255 0 0 1 1.768-.03L22.5 54.11l1.616-1.605a1.258 1.258 0 0 1 1.737 0c.497.478.51 1.262.03 1.756l-2.133 2.12v.956a3.735 3.735 0 0 1 2.27 2.255h.962l2.134-2.12a1.256 1.256 0 0 1 1.737 0c.497.476.51 1.262.03 1.756l-1.616 1.607 1.617 1.604a1.234 1.234 0 0 1 0 1.724zm-7.134-3.328c0-.688-.56-1.243-1.25-1.243s-1.25.555-1.25 1.243c0 .684.56 1.24 1.25 1.24s1.25-.556 1.25-1.24z"/></g></g></svg>