<svg xmlns="http://www.w3.org/2000/svg" width="25" height="23" viewBox="0 0 25 23"><g><g><path fill="#fff" d="M13.753 17.486c.031.672-.58 1.262-1.254 1.262-.698 0-1.284-.59-1.284-1.293s.586-1.293 1.284-1.293c.704 0 1.285.584 1.254 1.324zm6.774 5.513H4.452a4.394 4.394 0 0 1-3.84-2.218 4.475 4.475 0 0 1-.014-4.495L8.655 2.244A4.383 4.383 0 0 1 12.505 0c1.613 0 3.052.837 3.849 2.25L24.4 16.275a4.44 4.44 0 0 1-.01 4.469c-.812 1.412-2.256 2.254-3.864 2.254zm2.132-5.705L14.606 3.258a2.393 2.393 0 0 0-2.101-1.231c-.884 0-1.665.454-2.102 1.225L2.345 17.29a2.46 2.46 0 0 0 .005 2.466 2.393 2.393 0 0 0 2.097 1.21H20.52c.884 0 1.676-.46 2.123-1.235.442-.77.447-1.681.015-2.437zm-8.993-9.48a1.6 1.6 0 0 1 .118.647c-.03.646-.087 1.293-.118 1.939-.057.999-.118 1.997-.175 2.995-.03.325-.03.62-.03.941-.026.533-.437.942-.962.942a.944.944 0 0 1-.96-.91l-.263-4.64c-.03-.409-.056-.822-.087-1.232 0-.677.38-1.235.992-1.41a1.285 1.285 0 0 1 1.485.729z"/></g></g></svg>