<svg xmlns="http://www.w3.org/2000/svg" width="23" height="23" viewBox="0 0 23 23"><g><g><path fill="#fff" d="M10.112 7.169c-.02-.084-.02-.19-.02-.273 0-.085 0-.169.02-.274.021-.084.042-.168.084-.252a2.16 2.16 0 0 1 .127-.231c.042-.064.105-.127.168-.19.063-.063.126-.106.21-.168.063-.043.147-.084.231-.127h.021c.084-.041.168-.062.253-.083.084-.022.189-.022.273-.022.084 0 .168 0 .273.022.084.021.168.042.252.083.085.043.148.084.232.127.084.062.147.105.21.169l.042.041c.105.105.19.232.252.379.042.104.063.189.084.273.021.084.021.19.021.273 0 .085 0 .19-.02.274-.022.084-.043.189-.085.273-.02.02-.02.02-.02.042a.65.65 0 0 1-.106.21 1.115 1.115 0 0 1-.147.189l-.021.022c-.063.062-.126.126-.19.167a1.508 1.508 0 0 1-.252.148h-.02a.76.76 0 0 1-.232.084c-.084.02-.189.02-.273.02-.084 0-.168 0-.273-.02a1.05 1.05 0 0 1-.274-.084c-.105-.021-.189-.085-.252-.126-.084-.063-.147-.127-.21-.19-.042-.063-.105-.126-.147-.188a2.306 2.306 0 0 1-.127-.232c-.02-.085-.063-.169-.084-.336zm3.553 8.598v1.135a.543.543 0 0 1-.546.547H9.88a.543.543 0 0 1-.547-.547v-1.135c0-.315.253-.547.547-.547h.442v-3.49H9.88a.543.543 0 0 1-.547-.546v-1.136c0-.314.253-.546.547-.546h2.208c.315 0 .546.252.546.546V15.2h.484c.294 0 .546.252.546.567zM23 11.5C23 17.848 17.849 23 11.5 23 5.15 23 0 17.847 0 11.5 0 5.15 5.15 0 11.5 0 17.849 0 23 5.15 23 11.5zm-1.514 0c0-5.509-4.478-9.987-9.986-9.987-5.508 0-9.986 4.478-9.986 9.987 0 5.507 4.478 9.986 9.986 9.986 5.508 0 9.986-4.479 9.986-9.986z"/></g></g></svg>