<svg xmlns="http://www.w3.org/2000/svg" width="32" height="43" viewBox="0 0 32 43"><g><g><path fill="#272f3e" d="M19.458 21.342c0 .48-.043.87-.13 1.265a3.765 3.765 0 0 1-.386 1.045 3.892 3.892 0 0 1-.644.828c-.172.173-.387.304-.644.436-.258.085-.516.173-.773.218-.301.043-.602.087-.945.087H13.96c-.301 0-.516-.044-.645-.132-.128-.088-.214-.173-.257-.348-.086-.175-.086-.349-.086-.61v-5.619c0-.348.086-.611.215-.743.171-.13.386-.217.73-.217h1.976c.515 0 .944.044 1.331.133.387.13.73.303 1.03.564.817.698 1.204 1.743 1.204 3.093zm-1.504 0c0-.74-.128-1.307-.343-1.698-.215-.391-.473-.654-.816-.74-.344-.131-.73-.176-1.203-.176H14.56v5.23h1.761c.129 0 .258-.046.43-.087.129-.045.257-.132.386-.22.516-.434.773-1.176.816-2.309zM32 9.015v31.017c0 .785-.344 1.568-.86 2.092a2.901 2.901 0 0 1-2.06.87H2.92a2.98 2.98 0 0 1-2.061-.87 2.985 2.985 0 0 1-.86-2.092V2.96c0-.785.345-1.57.86-2.093L.902.823a2.833 2.833 0 0 1 2.019-.827h20.23c.172 0 .301 0 .43.085 0 .045.043.045.043.045 0 .045.043.045.043.045l.043.043 8.161 8.276v.045l.043.042c.043.132.086.264.086.438zm-8.032-5.883v3.615c0 .35.172.698.386.916.215.263.559.391.902.391h3.565zm6.185 36.9V9.885h-4.768c-.859 0-1.675-.348-2.233-.915a3.185 3.185 0 0 1-.945-2.264V1.782H2.964c-.258 0-.516.131-.73.306l-.043.042c-.215.22-.344.48-.344.784v37.163c0 .306.086.567.3.784.215.174.473.305.774.305h26.115c.3 0 .559-.131.773-.35.215-.216.344-.478.344-.784zM11.554 18.86c.13.305.172.654.172 1.003 0 .784-.258 1.393-.73 1.786-.473.392-1.16.609-2.105.609H7.474v2.18c0 .304-.086.522-.215.697-.172.174-.344.26-.558.26-.215 0-.43-.042-.559-.217a1.122 1.122 0 0 1-.215-.697v-5.925c0-.349.043-.61.215-.74.13-.13.387-.219.73-.219h1.976c.559 0 1.031.044 1.332.132.343.086.601.218.816.436.215.174.386.435.558.695zm-1.374 1.09c0-.348-.086-.61-.3-.827-.259-.219-.688-.35-1.375-.35H7.474v2.352h1.03c.344 0 .645-.043.903-.13.257-.087.43-.217.558-.392.129-.175.172-.392.215-.653zm11.554-2.44h3.608c.258 0 .43.043.559.176a.56.56 0 0 1 .171.435.562.562 0 0 1-.171.435c-.13.131-.301.173-.559.173h-3.006v1.962h2.534c.214 0 .386.087.515.173.129.132.172.26.172.437 0 .175-.043.348-.172.435-.129.13-.3.173-.515.173h-2.534v2.53c0 .303-.086.52-.215.696-.172.128-.344.218-.559.218-.214 0-.43-.044-.558-.218-.129-.133-.215-.393-.215-.697v-5.882c0-.262 0-.435.086-.567a.518.518 0 0 1 .3-.303c.13-.089.301-.133.56-.177z"/></g></g></svg>