<svg xmlns="http://www.w3.org/2000/svg" width="163" height="163" viewBox="0 0 163 163"><g><g><path fill="#272f3e" d="M122.233 152.084c-38.965 22.508-88.792 9.15-111.285-29.835-22.502-38.982-9.15-88.83 29.817-111.337C79.727-11.6 129.56 1.76 152.052 40.746c22.503 38.977 9.145 88.828-29.82 111.338zm15.709-103.188c-17.997-31.19-57.86-41.875-89.03-23.867-31.17 18.001-41.855 57.882-23.854 89.07 17.996 31.185 57.86 41.872 89.028 23.864 31.171-18.006 41.852-57.882 23.856-89.067zm-27.126 37.47L68.478 110.82c-3.899 2.252-7.073.421-7.093-4.076l-.219-49.408c-.022-4.497 3.115-6.314 7.001-4.043l42.665 24.893c3.882 2.269 3.874 5.933-.016 8.18z"/></g></g></svg>