<svg width="40" height="40" viewBox="0 0 40 40" fill="none" xmlns="http://www.w3.org/2000/svg">
<circle cx="20" cy="20" r="20" fill="white"/>
<g clip-path="url(#clip0)">
<path d="M24.7818 10.4386L22.301 10.4346C19.514 10.4346 17.7129 12.2825 17.7129 15.1426V17.3133H15.2186C15.003 17.3133 14.8285 17.4881 14.8285 17.7036V20.8487C14.8285 21.0642 15.0032 21.2388 15.2186 21.2388H17.7129V29.1749C17.7129 29.3905 17.8874 29.565 18.1029 29.565H21.3573C21.5728 29.565 21.7474 29.3903 21.7474 29.1749V21.2388H24.6638C24.8793 21.2388 25.0539 21.0642 25.0539 20.8487L25.055 17.7036C25.055 17.6001 25.0139 17.501 24.9408 17.4277C24.8678 17.3545 24.7683 17.3133 24.6648 17.3133H21.7474V15.4732C21.7474 14.5887 21.9581 14.1397 23.1102 14.1397L24.7814 14.1391C24.9967 14.1391 25.1713 13.9644 25.1713 13.7491V10.8286C25.1713 10.6135 24.9969 10.4389 24.7818 10.4386Z" fill="#272F3E"/>
</g>
<defs>
<clipPath id="clip0">
<rect width="19.1304" height="19.1304" fill="white" transform="translate(10.4348 10.4346)"/>
</clipPath>
</defs>
</svg>
