<svg width="20" height="20" viewBox="0 0 20 20" fill="none" xmlns="http://www.w3.org/2000/svg">
<g clip-path="url(#clip0)">
<path fill-rule="evenodd" clip-rule="evenodd" d="M8.86957 6.52177C8.9718 6.72323 9.11516 6.90063 9.29042 7.04317C9.31441 7.07754 9.34798 7.10414 9.38694 7.1196C9.4259 7.13506 9.46854 7.13921 9.50957 7.13064C9.5386 7.1642 9.57572 7.1893 9.61741 7.20452C9.6591 7.21973 9.70398 7.22423 9.74782 7.21726H10.2226C10.2609 7.22396 10.3004 7.21912 10.3361 7.20367C10.3718 7.18821 10.4021 7.16317 10.4235 7.13064H10.4348C10.4758 7.13612 10.5176 7.13057 10.5561 7.11535C10.5946 7.10013 10.6286 7.07524 10.6548 7.04317C10.73 7.00871 10.789 6.94703 10.8191 6.86994H10.8374C10.8858 6.81648 10.9286 6.75804 10.9652 6.69586C10.9927 6.67574 11.0152 6.64957 11.031 6.61943C11.0468 6.58929 11.0555 6.5558 11.0565 6.52177H11.0748C11.1075 6.4374 11.132 6.3502 11.1478 6.26107C11.1722 6.08801 11.1722 5.91189 11.1478 5.73882C11.1148 5.68489 11.0902 5.62693 11.0748 5.56559C11.0362 5.4312 10.9602 5.31022 10.8557 5.21743C10.8374 5.21743 10.8374 5.21777 10.8191 5.13081C10.76 5.09829 10.699 5.06875 10.6365 5.04334C10.614 5.01189 10.5833 4.98733 10.5477 4.97201C10.5122 4.95669 10.4731 4.95153 10.4348 4.95673C10.4087 4.9248 10.3748 4.89976 10.3365 4.88455C10.2981 4.86933 10.2565 4.86393 10.2156 4.86926C10.1851 4.83791 10.1479 4.81383 10.1068 4.79878C10.0657 4.78373 10.0218 4.77844 9.97826 4.78264C9.93462 4.77707 9.89028 4.78195 9.84897 4.79708C9.80766 4.81221 9.77058 4.83682 9.74086 4.86926C9.69982 4.86377 9.65807 4.86932 9.61956 4.88455C9.58105 4.89977 9.54707 4.92466 9.52087 4.95673H9.50261C9.4643 4.95002 9.42484 4.95486 9.38914 4.97031C9.35344 4.98577 9.32306 5.01081 9.30173 5.04334C9.23922 5.06875 9.17825 5.09829 9.11913 5.13081C9.0887 5.20195 9.03786 5.26179 8.97304 5.30404L8.86259 5.56559C8.83059 5.62004 8.80603 5.67785 8.78956 5.73882C8.76521 5.91189 8.76521 6.08801 8.78956 6.26107C8.8113 6.34803 8.84783 6.43482 8.86957 6.52177ZM11.4113 13.2176H10.9904V8.69569C10.9758 8.57863 10.92 8.4705 10.833 8.39083C10.746 8.31116 10.6335 8.26516 10.5156 8.2609H8.59566C8.53563 8.25714 8.47545 8.26553 8.41873 8.28553C8.36201 8.30553 8.3099 8.33666 8.26551 8.37724C8.22112 8.41782 8.18537 8.4669 8.16037 8.5216C8.13537 8.5763 8.12164 8.63557 8.12001 8.69569V9.73933C8.11974 9.80004 8.13216 9.86036 8.15652 9.91596C8.18088 9.97157 8.21662 10.0211 8.26142 10.062C8.30623 10.103 8.35913 10.1345 8.41669 10.1537C8.47425 10.173 8.53522 10.1798 8.59566 10.1741H8.97999V13.2176H8.59566C8.46542 13.2291 8.34426 13.2891 8.25617 13.3857C8.16808 13.4824 8.1195 13.6082 8.12001 13.739V14.696C8.11974 14.7567 8.13216 14.8162 8.15652 14.8718C8.18088 14.9274 8.21662 14.9778 8.26142 15.0187C8.30623 15.0597 8.35913 15.0903 8.41669 15.1096C8.47425 15.1289 8.53522 15.1365 8.59566 15.1308H11.4113C11.4713 15.1346 11.5314 15.1262 11.5881 15.1062C11.6447 15.0862 11.6968 15.0542 11.7411 15.0136C11.7854 14.973 11.8211 14.924 11.846 14.8693C11.871 14.8146 11.8846 14.7561 11.8861 14.696V13.739C11.8865 13.6078 11.8376 13.4816 11.7489 13.3849C11.6603 13.2882 11.5385 13.2285 11.4078 13.2176H11.4113ZM10 3.42237e-05C8.02218 3.42237e-05 6.08878 0.586852 4.44428 1.68567C2.79979 2.78448 1.51809 4.34635 0.761211 6.17361C0.00433471 8.00087 -0.193701 10.0108 0.192151 11.9506C0.578003 13.8904 1.53042 15.6727 2.92894 17.0712C4.32747 18.4697 6.10929 19.4223 8.0491 19.8081C9.98891 20.194 11.9996 19.996 13.8268 19.2392C15.6541 18.4823 17.2159 17.1999 18.3147 15.5554C19.4135 13.9109 20 11.9778 20 10C20.0034 8.68585 19.7471 7.38417 19.2458 6.16936C18.7445 4.95455 18.008 3.8505 17.0787 2.92123C16.1495 1.99196 15.0457 1.25544 13.8309 0.75411C12.6161 0.252782 11.3142 -0.00340757 10 3.42237e-05ZM10 18.6957C8.27964 18.6981 6.59723 18.19 5.16564 17.2359C3.73405 16.2819 2.6176 14.9252 1.95758 13.3365C1.29756 11.7478 1.12363 9.9986 1.45778 8.31101C1.79193 6.62341 2.61913 5.07266 3.83476 3.85533C5.05038 2.63801 6.59978 1.80903 8.2869 1.47252C9.97402 1.13601 11.7231 1.30725 13.3127 1.96505C14.9023 2.62284 16.2611 3.73707 17.2171 5.16732C18.1732 6.59758 18.6835 8.27968 18.6835 10C18.6807 12.3033 17.7654 14.5115 16.1378 16.1413C14.5103 17.7711 12.3033 18.6897 10 18.6957Z" fill="white"/>
</g>
<defs>
<clipPath id="clip0">
<rect width="20" height="20" fill="white"/>
</clipPath>
</defs>
</svg>
