<svg width="36" height="36" viewBox="0 0 36 36" fill="none" xmlns="http://www.w3.org/2000/svg">
<g clip-path="url(#clip0)">
<rect x="7.56519" y="7.56543" width="20.8696" height="20.8696" fill="#272F3E"/>
<path d="M21.3288 18.0002C21.3288 19.8387 19.8384 21.329 17.9999 21.329C16.1615 21.329 14.6711 19.8387 14.6711 18.0002C14.6711 16.1617 16.1615 14.6714 17.9999 14.6714C19.8384 14.6714 21.3288 16.1617 21.3288 18.0002Z" fill="white"/>
<path d="M25.7848 12.1108C25.6248 11.6772 25.3695 11.2847 25.0378 10.9625C24.7157 10.6308 24.3235 10.3755 23.8896 10.2155C23.5377 10.0788 23.0091 9.91617 22.0354 9.87186C20.9822 9.82383 20.6664 9.81348 17.9999 9.81348C15.3332 9.81348 15.0175 9.82356 13.9645 9.87159C12.9908 9.91617 12.4619 10.0788 12.1103 10.2155C11.6764 10.3755 11.284 10.6308 10.9621 10.9625C10.6303 11.2847 10.3751 11.6769 10.2148 12.1108C10.0781 12.4627 9.91544 12.9915 9.87113 13.9652C9.82309 15.0182 9.81274 15.334 9.81274 18.0007C9.81274 20.6671 9.82309 20.9829 9.87113 22.0362C9.91544 23.0098 10.0781 23.5384 10.2148 23.8903C10.3751 24.3242 10.6301 24.7164 10.9618 25.0386C11.284 25.3703 11.6762 25.6256 12.1101 25.7856C12.4619 25.9225 12.9908 26.0852 13.9645 26.1295C15.0175 26.1775 15.333 26.1876 17.9997 26.1876C20.6667 26.1876 20.9824 26.1775 22.0352 26.1295C23.0088 26.0852 23.5377 25.9225 23.8896 25.7856C24.7605 25.4496 25.4489 24.7612 25.7848 23.8903C25.9215 23.5384 26.0842 23.0098 26.1288 22.0362C26.1768 20.9829 26.1869 20.6671 26.1869 18.0007C26.1869 15.334 26.1768 15.0182 26.1288 13.9652C26.0845 12.9915 25.9218 12.4627 25.7848 12.1108ZM17.9999 23.1284C15.1677 23.1284 12.8717 20.8327 12.8717 18.0004C12.8717 15.1681 15.1677 12.8724 17.9999 12.8724C20.832 12.8724 23.128 15.1681 23.128 18.0004C23.128 20.8327 20.832 23.1284 17.9999 23.1284ZM23.3307 13.8681C22.6689 13.8681 22.1323 13.3315 22.1323 12.6697C22.1323 12.0078 22.6689 11.4712 23.3307 11.4712C23.9925 11.4712 24.5291 12.0078 24.5291 12.6697C24.5289 13.3315 23.9925 13.8681 23.3307 13.8681Z" fill="white"/>
<path d="M17.9999 0.608887C8.39646 0.608887 0.608643 8.39671 0.608643 18.0002C0.608643 27.6037 8.39646 35.3915 17.9999 35.3915C27.6034 35.3915 35.3913 27.6037 35.3913 18.0002C35.3913 8.39671 27.6034 0.608887 17.9999 0.608887ZM27.9261 22.1174C27.8778 23.1805 27.7088 23.9063 27.462 24.5416C26.9432 25.883 25.8828 26.9434 24.5413 27.4622C23.9063 27.709 23.1802 27.8778 22.1174 27.9264C21.0525 27.9749 20.7123 27.9866 18.0002 27.9866C15.2879 27.9866 14.9479 27.9749 13.8827 27.9264C12.8199 27.8778 12.0939 27.709 11.4588 27.4622C10.7922 27.2115 10.1888 26.8184 9.68988 26.3103C9.18196 25.8116 8.78895 25.2079 8.53817 24.5416C8.29138 23.9065 8.12234 23.1805 8.07404 22.1177C8.02494 21.0525 8.01353 20.7123 8.01353 18.0002C8.01353 15.2881 8.02494 14.9479 8.07377 13.883C8.12207 12.8199 8.29085 12.0941 8.53764 11.4588C8.78841 10.7925 9.18169 10.1888 9.68988 9.69012C10.1885 9.18194 10.7922 8.78892 11.4586 8.53815C12.0939 8.29136 12.8197 8.12258 13.8827 8.07402C14.9477 8.02545 15.2879 8.01378 17.9999 8.01378C20.712 8.01378 21.0522 8.02545 22.1172 8.07428C23.1802 8.12258 23.906 8.29136 24.5413 8.53788C25.2077 8.78866 25.8114 9.18194 26.3103 9.69012C26.8182 10.189 27.2115 10.7925 27.462 11.4588C27.709 12.0941 27.8778 12.8199 27.9264 13.883C27.9749 14.9479 27.9864 15.2881 27.9864 18.0002C27.9864 20.7123 27.9749 21.0525 27.9261 22.1174Z" fill="white"/>
</g>
<defs>
<clipPath id="clip0">
<rect width="34.7826" height="34.7826" fill="white" transform="translate(0.608643 0.608887)"/>
</clipPath>
</defs>
</svg>
