<svg width="22" height="28" viewBox="0 0 22 28" fill="none" xmlns="http://www.w3.org/2000/svg">
<path fill-rule="evenodd" clip-rule="evenodd" d="M12.4094 12.0328C12.2202 11.8779 12.0012 11.7606 11.765 11.6879C11.4913 11.634 11.2125 11.6077 10.9331 11.6094H9.69813C9.53469 11.6011 9.37338 11.648 9.24189 11.7423C9.14143 11.8702 9.09354 12.0298 9.1075 12.1898V15.5881C9.09461 15.7134 9.11304 15.8401 9.16125 15.9571C9.17135 16.0012 9.19085 16.0429 9.21851 16.0793C9.24616 16.1158 9.28138 16.146 9.32188 16.1685C9.44572 16.2315 9.58564 16.2587 9.72502 16.247H10.96C11.326 16.2461 11.6891 16.1849 12.0338 16.0658C12.1801 15.9957 12.3156 15.9065 12.4362 15.8C12.5941 15.6519 12.7296 15.4829 12.8388 15.2981C12.9518 15.1015 13.0333 14.8895 13.0806 14.6693C13.1366 14.4169 13.1636 14.1591 13.1613 13.9011C13.1878 13.5551 13.134 13.2081 13.0039 12.8848C12.8739 12.5616 12.6707 12.2703 12.4094 12.0328ZM11.7113 15.2981C11.638 15.3537 11.5567 15.3983 11.47 15.431C11.3826 15.4581 11.2926 15.4763 11.2013 15.4853H10.1006V12.3233H10.745C10.9994 12.3134 11.2535 12.3482 11.495 12.426C11.6075 12.4622 11.711 12.5202 11.7988 12.5973C11.8866 12.6743 11.9568 12.7682 12.005 12.873C12.1626 13.1935 12.2362 13.5466 12.2194 13.9011C12.2406 14.1553 12.2064 14.4109 12.1188 14.6516C12.0313 14.8922 11.8924 15.1128 11.7113 15.2981ZM20.9463 6.18585L20.9194 6.16164V6.13153L15.8188 1.12485L15.7919 1.10064C15.7885 1.1008 15.7851 1.10059 15.7818 1.09946C15.7786 1.09832 15.7757 1.0964 15.7732 1.09414C15.7707 1.09189 15.7686 1.0889 15.7672 1.08588C15.7658 1.08286 15.7651 1.07974 15.765 1.07643C15.7612 1.07629 15.7573 1.07569 15.7538 1.07407C15.7504 1.07244 15.7473 1.06982 15.7448 1.06698C15.7422 1.06414 15.7403 1.06111 15.7392 1.05753C15.7381 1.05396 15.7377 1.05003 15.7381 1.04632C15.6557 1.00484 15.5623 0.987952 15.47 0.997896H2.82564C2.59194 0.996195 2.36019 1.03918 2.14365 1.12426C1.92712 1.20934 1.73004 1.33503 1.56374 1.4939L1.53689 1.52401C1.19712 1.86311 1.00493 2.3154 1.00001 2.78764V25.2022C0.998661 25.6732 1.18981 26.1253 1.53178 26.4606C1.87374 26.7958 2.33882 26.987 2.82564 26.992H19.1744C19.4146 26.9922 19.6525 26.9454 19.8739 26.855C20.0953 26.7646 20.2956 26.6325 20.4631 26.4659C20.8029 26.1268 20.9951 25.6745 21 25.2022V6.45157C20.9982 6.36054 20.98 6.27085 20.9463 6.18585ZM15.98 2.89038L19.0131 5.86522H16.785C16.679 5.86915 16.5734 5.84994 16.476 5.80912C16.3787 5.76831 16.2921 5.70715 16.2225 5.62962C16.0726 5.48265 15.9862 5.28574 15.9812 5.07929V2.89038H15.98ZM19.8456 25.2022C19.8382 25.3804 19.7627 25.5496 19.6337 25.677C19.5047 25.8043 19.3315 25.8805 19.1475 25.8913H2.82564C2.6472 25.8841 2.4767 25.8182 2.34251 25.7042C2.27983 25.642 2.23086 25.5679 2.19862 25.4869C2.16639 25.4058 2.15157 25.3192 2.15502 25.2324V2.75753C2.15662 2.66903 2.17643 2.58165 2.21335 2.50067C2.25027 2.41968 2.30355 2.34655 2.37002 2.28573L2.39626 2.26152C2.52174 2.15007 2.68311 2.08413 2.85315 2.07434H14.88V5.05508C14.8807 5.56463 15.0901 6.05336 15.4624 6.41378C15.8347 6.7742 16.3396 6.97672 16.8662 6.97768H19.8463V25.2022H19.8456ZM7.87501 11.9785C7.73395 11.8467 7.55708 11.7567 7.36502 11.7186C7.09226 11.6574 6.81236 11.6304 6.5325 11.6395H5.29749C5.13437 11.6254 4.97168 11.6707 4.84125 11.7665C4.78678 11.8272 4.74658 11.8989 4.72338 11.9761C4.70018 12.0533 4.69457 12.1345 4.7069 12.2141V15.8C4.70283 15.9515 4.74999 16.0997 4.84125 16.2228C4.88517 16.2689 4.93965 16.3047 5.00033 16.3267C5.06101 16.3488 5.1262 16.3565 5.19064 16.3498C5.25709 16.3497 5.32271 16.3356 5.38294 16.3084C5.44317 16.2813 5.49657 16.2419 5.53938 16.1927C5.63147 16.0722 5.67883 15.9256 5.67377 15.7758V14.4573H6.55939C7.02904 14.4871 7.49458 14.3569 7.87501 14.0888C8.03056 13.9534 8.1524 13.7856 8.23141 13.5981C8.31043 13.4107 8.34456 13.2085 8.33124 13.0065C8.33756 12.8 8.301 12.5944 8.22375 12.4018C8.12849 12.2457 8.01111 12.1031 7.87501 11.9785ZM7.23063 13.4535C7.14569 13.5684 7.0226 13.652 6.88189 13.6897C6.70021 13.7459 6.51009 13.7724 6.31937 13.7682H5.67499V12.3469H6.31937C6.62238 12.3184 6.92617 12.3936 7.17814 12.5589C7.24351 12.6255 7.29392 12.7046 7.32619 12.791C7.35846 12.8773 7.37189 12.9692 7.36563 13.0608C7.3533 13.2006 7.30614 13.3351 7.22815 13.4535H7.23063ZM14.5862 11.5852C14.4641 11.5967 14.3455 11.6316 14.2375 11.6879C14.1948 11.7054 14.1563 11.7313 14.1241 11.7635C14.0918 11.7957 14.0667 11.8339 14.05 11.8757C13.9993 11.9814 13.9807 12.0985 13.9963 12.2141V15.7758C13.9869 15.9261 14.0346 16.0742 14.1306 16.1927C14.1731 16.2407 14.2271 16.2782 14.2879 16.3014C14.3487 16.3245 14.4145 16.3326 14.4794 16.3256C14.6081 16.321 14.7313 16.2742 14.8287 16.1927C14.9208 16.0722 14.9682 15.9256 14.9631 15.7758V14.2459H16.5469C16.605 14.251 16.6635 14.2447 16.7189 14.227C16.7743 14.2093 16.8253 14.1807 16.8688 14.1432C16.9069 14.11 16.9365 14.0683 16.9551 14.0221C16.9738 13.9759 16.981 13.9262 16.9763 13.8768C16.9793 13.8276 16.9712 13.7787 16.9527 13.7328C16.9341 13.6868 16.9055 13.6453 16.8688 13.6111C16.7738 13.5479 16.6621 13.5123 16.5469 13.5084H14.9631V12.3233H16.8419C16.9048 12.3311 16.9687 12.325 17.0291 12.3062C17.0895 12.2874 17.1449 12.2559 17.1913 12.2141C17.2277 12.181 17.2562 12.1409 17.2747 12.096C17.2931 12.051 17.3011 12.0025 17.2981 11.9542C17.3006 11.9051 17.2923 11.856 17.2739 11.8102C17.2555 11.7643 17.2274 11.7226 17.1913 11.6879C17.1436 11.6483 17.0879 11.6188 17.0278 11.6011C16.9676 11.5834 16.9043 11.5779 16.8419 11.5852H14.5869H14.5862Z" fill="#272F3E" stroke="#272F3E" stroke-width="0.3"/>
</svg>
