<svg width="19" height="18" viewBox="0 0 19 18" fill="none" xmlns="http://www.w3.org/2000/svg">
<g clip-path="url(#clip0)">
<path fill-rule="evenodd" clip-rule="evenodd" d="M9.50005 12.6782C9.24082 12.6837 8.99386 12.7932 8.81165 12.9831C8.62944 13.1731 8.52634 13.4284 8.52422 13.6954C8.52682 13.8236 8.5543 13.9498 8.60507 14.0669C8.65584 14.1839 8.72885 14.2896 8.81979 14.3772C8.91074 14.4647 9.01779 14.5324 9.13462 14.5766C9.25145 14.6209 9.37571 14.6407 9.50005 14.6347C9.75201 14.6347 9.99364 14.5316 10.1718 14.3481C10.35 14.1647 10.4501 13.9159 10.4501 13.6565C10.4501 13.397 10.35 13.1483 10.1718 12.9648C9.99364 12.7813 9.75201 12.6782 9.50005 12.6782ZM18.538 16.1999C18.8393 15.6795 18.9991 15.0847 19.0004 14.4788C19.0017 13.8729 18.8446 13.278 18.5456 12.7562L12.4299 1.72168C12.1299 1.19718 11.7022 0.761945 11.189 0.459876C10.6758 0.157807 10.095 -0.000976562 9.50386 -0.000976562C8.91275 -0.000976562 8.33188 0.157807 7.8187 0.459876C7.30552 0.761945 6.87781 1.19718 6.57785 1.72168L0.454528 12.7562C0.15497 13.2922 -0.00173881 13.9001 0.000263083 14.5186C0.00226498 15.137 0.162918 15.7439 0.465939 16.2779C0.758041 16.8076 1.18289 17.2468 1.69612 17.5496C2.20934 17.8525 2.7921 18.0081 3.38357 17.9998H15.6006C16.2039 18.0089 16.7977 17.8453 17.3162 17.5275C17.8346 17.2097 18.2573 16.7503 18.5372 16.1999H18.538ZM17.2102 15.4173C17.0548 15.7205 16.823 15.9751 16.5391 16.1541C16.2551 16.3331 15.9297 16.4298 15.5968 16.4346H3.37977C3.05188 16.4326 2.7303 16.3416 2.44742 16.1709C2.16454 16.0002 1.93035 15.7561 1.7685 15.4624C1.60665 15.1688 1.52285 14.8363 1.52553 14.4987C1.52821 14.161 1.61727 13.8296 1.78376 13.5388L7.90785 2.58224C8.05628 2.2773 8.28417 2.02086 8.56603 1.84167C8.8479 1.66248 9.17261 1.56806 9.50386 1.56806C9.83511 1.56806 10.1598 1.66248 10.4417 1.84167C10.7235 2.02086 10.9514 2.2773 11.0999 2.58224L17.2201 13.5388C17.3816 13.8242 17.4657 14.1492 17.4639 14.4796C17.462 14.8099 17.3742 15.1338 17.2095 15.4173H17.2102ZM9.25838 5.556C9.03192 5.62566 8.83463 5.77165 8.69798 5.97024C8.56134 6.16882 8.49321 6.40886 8.50446 6.65196C8.52802 6.965 8.54778 7.2782 8.57058 7.59124C8.63746 8.84342 8.70358 10.0175 8.7697 11.2697C8.78042 11.4611 8.86222 11.6407 8.99817 11.7718C9.13412 11.9029 9.3138 11.9751 9.50005 11.9735C9.59824 11.9727 9.69526 11.9517 9.78543 11.9116C9.87559 11.8716 9.95707 11.8133 10.0251 11.7404C10.0931 11.6675 10.1464 11.5818 10.1816 11.4875C10.2169 11.3931 10.2335 11.292 10.2304 11.1909C10.2265 10.9559 10.2344 10.7213 10.254 10.487C10.2973 9.70444 10.3436 8.92183 10.387 8.13922C10.4105 7.66966 10.4531 7.12153 10.4767 6.65196C10.4858 6.46481 10.4552 6.27771 10.387 6.10398C10.3027 5.88108 10.1386 5.69997 9.92844 5.59804C9.7183 5.4961 9.47818 5.48096 9.25761 5.556H9.25838Z" fill="white"/>
</g>
<defs>
<clipPath id="clip0">
<rect width="19" height="18" fill="white"/>
</clipPath>
</defs>
</svg>
